<svg width="122" height="120" viewBox="0 0 122 120" fill="none" xmlns="http://www.w3.org/2000/svg">
<circle cx="61" cy="60" r="58" stroke="#8376D3" stroke-width="4"/>
<path d="M105 60C105 76.3731 100.021 91.1577 92.0198 101.826C84.0185 112.495 73.0411 119 61 119C48.9589 119 37.9815 112.495 29.9802 101.826C21.9786 91.1577 17 76.3731 17 60C17 43.6269 21.9786 28.8423 29.9802 18.1736C37.9815 7.50515 48.9589 1 61 1C73.0411 1 84.0185 7.50515 92.0198 18.1736C100.021 28.8423 105 43.6269 105 60Z" stroke="#8376D3" stroke-width="2"/>
<path d="M85 60C85 76.4695 82.2166 91.3329 77.7546 102.042C75.5227 107.398 72.8905 111.668 70.0187 114.583C67.1505 117.495 64.1034 119 61 119C57.8966 119 54.8495 117.495 51.9813 114.583C49.1095 111.668 46.4773 107.398 44.2454 102.042C39.7834 91.3329 37 76.4695 37 60C37 43.5305 39.7834 28.6671 44.2454 17.9582C46.4773 12.6016 49.1095 8.33202 51.9813 5.41688C54.8495 2.50526 57.8966 1 61 1C64.1034 1 67.1505 2.50526 70.0187 5.41688C72.8905 8.33202 75.5227 12.6016 77.7546 17.9582C82.2166 28.6671 85 43.5305 85 60Z" stroke="#8376D3" stroke-width="2"/>
<path d="M10 29C32.8878 44.6271 89.6097 42.6737 112 29" stroke="#8376D3" stroke-width="2"/>
<path d="M112 91C89.1122 75.3729 32.3903 77.3263 10 91" stroke="#8376D3" stroke-width="2"/>
<path d="M16.5417 70C12.6935 70 9.09948 66.3542 8 63.75C11.2984 57.5 14.3192 57.1838 19.5445 53.3333C24.4921 49.6875 41.1675 52.6389 47.0314 53.3333L60.7749 45H73.4189L66.822 54.375L95.9581 55.9375C99.0733 53.3333 105.524 47.8125 106.403 46.5625C107.283 45.3125 111.168 46.0417 113 46.5625C112.634 49.1667 111.461 55.2083 109.702 58.5417C107.942 61.875 97.6073 67.5694 92.6597 70H16.5417Z" fill="#8376D3" stroke="#8376D3" stroke-width="3"/>
</svg>
