<?xml version="1.0" encoding="UTF-8"?>
<!DOCTYPE svg PUBLIC "-//W3C//DTD SVG 1.1//EN" "http://www.w3.org/Graphics/SVG/1.1/DTD/svg11.dtd">
<!-- Creator: CorelDRAW -->
<svg xmlns="http://www.w3.org/2000/svg" xml:space="preserve" width="550px" height="413px" version="1.1" style="shape-rendering:geometricPrecision; text-rendering:geometricPrecision; image-rendering:optimizeQuality; fill-rule:evenodd; clip-rule:evenodd"
viewBox="0 0 304.43 228.74"
 xmlns:xlink="http://www.w3.org/1999/xlink"
 xmlns:xodm="http://www.corel.com/coreldraw/odm/2003">
 <defs>
  <style type="text/css">
   <![CDATA[
    .str3 {stroke:#4B4B4D;stroke-width:0.55;stroke-linecap:round;stroke-miterlimit:2.61313}
    .str2 {stroke:#FEFEFE;stroke-width:0.55;stroke-linecap:round;stroke-miterlimit:2.61313;stroke-dasharray:1.110000 2.760000}
    .str1 {stroke:#BDBFC1;stroke-width:0.55;stroke-linecap:round;stroke-miterlimit:2.61313;stroke-dasharray:1.110000 2.760000}
    .str0 {stroke:#4B4B4D;stroke-width:0.55;stroke-linecap:round;stroke-miterlimit:2.61313;stroke-dasharray:1.110000 2.760000}
    .fil9 {fill:none}
    .fil0 {fill:#FEC32B}
    .fil2 {fill:#FDB92E}
    .fil3 {fill:#FBB12F}
    .fil1 {fill:#DA9C2E}
    .fil4 {fill:#DA9C2E}
    .fil7 {fill:#848688}
    .fil5 {fill:#606062}
    .fil6 {fill:#4B4B4D}
    .fil8 {fill:#727376}
   ]]>
  </style>
     <mask id="id0">
  <linearGradient id="id1" gradientUnits="userSpaceOnUse" x1="58.95" y1="137.4" x2="13.38" y2="111.09">
   <stop offset="0" style="stop-opacity:1; stop-color:white"/>
   <stop offset="1" style="stop-opacity:0; stop-color:white"/>
  </linearGradient>
      <rect style="fill:url(#id1)" y="81.16" width="105.84" height="61.34"/>
     </mask>
     <mask id="id2">
  <linearGradient id="id3" gradientUnits="userSpaceOnUse" x1="58.95" y1="137.4" x2="13.38" y2="111.09">
   <stop offset="0" style="stop-opacity:1; stop-color:white"/>
   <stop offset="1" style="stop-opacity:0; stop-color:white"/>
  </linearGradient>
      <rect style="fill:url(#id3)" y="106.8" width="83.64" height="48.52"/>
     </mask>
     <mask id="id4">
  <linearGradient id="id5" gradientUnits="userSpaceOnUse" x1="58.95" y1="137.4" x2="13.38" y2="111.09">
   <stop offset="0" style="stop-opacity:1; stop-color:white"/>
   <stop offset="1" style="stop-opacity:0; stop-color:white"/>
  </linearGradient>
      <rect style="fill:url(#id5)" y="125.68" width="83.64" height="48.52"/>
     </mask>
     <mask id="id6">
  <linearGradient id="id7" gradientUnits="userSpaceOnUse" x1="58.95" y1="137.4" x2="13.38" y2="111.09">
   <stop offset="0" style="stop-opacity:1; stop-color:white"/>
   <stop offset="1" style="stop-opacity:0; stop-color:white"/>
  </linearGradient>
      <rect style="fill:url(#id7)" y="100.04" width="105.84" height="61.34"/>
     </mask>
     <mask id="id8">
  <linearGradient id="id9" gradientUnits="userSpaceOnUse" x1="236.11" y1="78.82" x2="300.11" y2="115.77">
   <stop offset="0" style="stop-opacity:1; stop-color:white"/>
   <stop offset="1" style="stop-opacity:0; stop-color:white"/>
  </linearGradient>
      <rect style="fill:url(#id9)" x="200.52" y="86.95" width="103.92" height="60.23"/>
     </mask>
     <mask id="id10">
  <linearGradient id="id11" gradientUnits="userSpaceOnUse" x1="235.96" y1="78.42" x2="297.29" y2="113.82">
   <stop offset="0" style="stop-opacity:1; stop-color:white"/>
   <stop offset="1" style="stop-opacity:0; stop-color:white"/>
  </linearGradient>
      <rect style="fill:url(#id11)" x="222.72" y="74.13" width="78.72" height="45.68"/>
     </mask>
     <mask id="id12">
  <linearGradient id="id13" gradientUnits="userSpaceOnUse" x1="235.78" y1="77.01" x2="296.29" y2="111.94">
   <stop offset="0" style="stop-opacity:1; stop-color:white"/>
   <stop offset="1" style="stop-opacity:0; stop-color:white"/>
  </linearGradient>
      <rect style="fill:url(#id13)" x="222.72" y="55.25" width="77.68" height="45.08"/>
     </mask>
     <mask id="id14">
  <linearGradient id="id15" gradientUnits="userSpaceOnUse" x1="236.11" y1="78.48" x2="300.11" y2="115.43">
   <stop offset="0" style="stop-opacity:1; stop-color:white"/>
   <stop offset="1" style="stop-opacity:0; stop-color:white"/>
  </linearGradient>
      <rect style="fill:url(#id15)" x="200.52" y="68.07" width="103.92" height="60.23"/>
     </mask>
 </defs>
 <g id="Layer_x0020_1">
  <metadata id="CorelCorpID_0Corel-Layer"/>
  <g id="_1301726031840">
   <polygon class="fil0" points="130.59,55.24 154.34,41.53 200.8,68.35 223,55.53 188.09,35.38 153.18,15.22 118.27,35.38 83.35,55.53 83.35,115.17 106.72,128.66 106.72,69.03 153.18,95.85 177.05,82.07 "/>
   <polygon class="fil1" points="154.34,60.41 200.8,87.23 200.8,68.35 154.34,41.53 "/>
   <polygon class="fil2" points="200.8,68.35 200.8,87.23 223,74.41 223,55.53 "/>
   <polygon class="fil3" points="153.18,95.85 83.35,55.53 83.35,74.41 153.18,114.73 "/>
   <polygon class="fil2" points="177.05,82.07 153.18,95.85 153.18,114.73 177.05,100.95 "/>
   <polygon class="fil3" points="106.72,128.66 106.72,87.91 83.35,74.41 83.35,115.17 "/>
   <polygon class="fil4" points="130.59,55.24 146.94,64.68 154.34,60.41 154.34,41.53 "/>
   <polygon class="fil2" points="131.46,102.18 106.72,87.91 106.72,128.66 131.46,114.39 "/>
   <polygon class="fil5" points="175.77,174.21 152.02,187.92 105.56,161.1 83.36,173.92 118.27,194.07 153.18,214.23 188.09,194.07 223.01,173.92 223.01,114.28 199.64,100.79 199.64,160.43 153.18,133.61 129.31,147.38 "/>
   <polygon class="fil6" points="152.02,169.04 105.56,142.22 105.56,161.1 152.02,187.92 "/>
   <polygon class="fil7" points="105.56,161.1 105.56,142.22 83.36,155.04 83.36,173.92 "/>
   <polygon class="fil8" points="153.18,133.61 223.01,173.92 223.01,155.04 153.18,114.73 "/>
   <polygon class="fil7" points="129.31,147.38 153.18,133.61 153.18,114.73 129.31,128.5 "/>
   <polygon class="fil8" points="199.64,100.79 199.64,141.55 223.01,155.04 223.01,114.28 "/>
   <polygon class="fil6" points="175.77,174.21 159.42,164.77 152.02,169.04 152.02,187.92 "/>
   <polygon class="fil7" points="174.9,127.27 199.64,141.55 199.64,100.79 174.9,115.07 "/>
   <line class="fil9 str0" x1="127.29" y1="0.28" x2="223" y2= "55.53" />
   <line class="fil9 str0" x1="54.28" y1="72.32" x2="157.57" y2= "12.69" />
   <line class="fil9 str1" x1="194.96" y1="90.6" x2="298.24" y2= "30.97" />
   <line class="fil9 str1" x1="67.59" y1="183.02" x2="153.18" y2= "133.61" />
   <line class="fil9 str2" x1="153.18" y1="133.61" x2="223" y2= "173.92" />
   <line class="fil9 str0" x1="81.79" y1="228.46" x2="199.64" y2= "160.43" />
   <line class="fil9 str2" x1="105.56" y1="161.1" x2="199.13" y2= "215.12" />
   <line class="fil9 str2" x1="63.74" y1="63.09" x2="233.29" y2= "160.97" />
   <line class="fil9 str0" x1="90.77" y1="32.25" x2="191.83" y2= "90.6" />
   <g>
    <line class="fil9 str3" style="mask:url(#id0)" x1="0.28" y1="81.44" x2="105.56" y2= "142.22" />
    <line class="fil9 str3" style="mask:url(#id2)" x1="0.28" y1="107.08" x2="83.36" y2= "155.04" />
    <line class="fil9 str3" style="mask:url(#id4)" x1="0.28" y1="125.96" x2="83.36" y2= "173.92" />
    <line class="fil9 str3" style="mask:url(#id6)" x1="0.28" y1="100.32" x2="105.56" y2= "161.1" />
   </g>
   <g>
    <line class="fil9 str3" style="mask:url(#id8)" x1="304.16" y1="146.9" x2="200.8" y2= "87.23" />
    <line class="fil9 str3" style="mask:url(#id10)" x1="301.16" y1="119.53" x2="223" y2= "74.41" />
    <line class="fil9 str3" style="mask:url(#id12)" x1="300.12" y1="100.05" x2="223" y2= "55.53" />
    <line class="fil9 str3" style="mask:url(#id14)" x1="304.16" y1="128.02" x2="200.8" y2= "68.35" />
   </g>
  </g>
 </g>
</svg>
