<svg width="175" height="50" viewBox="0 0 175 50" fill="none" xmlns="http://www.w3.org/2000/svg">
<path d="M0 0H125C152.614 0 175 22.3858 175 50V50H50C22.3858 50 0 27.6142 0 0V0Z" fill="#CBCBCB"/>
<g filter="url(#filter0_d_205_39)">
<path d="M17.9968 29.7955C17.3093 29.7955 16.6815 29.6278 16.1133 29.2926C15.5451 28.9517 15.0906 28.4972 14.7496 27.929C14.4144 27.3608 14.2468 26.733 14.2468 26.0455C14.2468 25.3523 14.4144 24.7244 14.7496 24.1619C15.0906 23.5937 15.5451 23.142 16.1133 22.8068C16.6815 22.4659 17.3093 22.2955 17.9968 22.2955C18.69 22.2955 19.3178 22.4659 19.8803 22.8068C20.4485 23.142 20.9002 23.5937 21.2354 24.1619C21.5763 24.7244 21.7468 25.3523 21.7468 26.0455C21.7468 26.733 21.5763 27.3608 21.2354 27.929C20.9002 28.4972 20.4485 28.9517 19.8803 29.2926C19.3178 29.6278 18.69 29.7955 17.9968 29.7955ZM53.1648 21.8693H48.9034C48.8466 21.4318 48.7301 21.0369 48.554 20.6847C48.3778 20.3324 48.1449 20.0312 47.8551 19.7812C47.5653 19.5312 47.2216 19.3409 46.8239 19.2102C46.4318 19.0739 45.9972 19.0057 45.5199 19.0057C44.6733 19.0057 43.9432 19.2131 43.3295 19.6278C42.7216 20.0426 42.2528 20.642 41.9233 21.4261C41.5994 22.2102 41.4375 23.1591 41.4375 24.2727C41.4375 25.4318 41.6023 26.4034 41.9318 27.1875C42.267 27.9659 42.7358 28.554 43.3381 28.9517C43.946 29.3437 44.6648 29.5398 45.4943 29.5398C45.9602 29.5398 46.3835 29.4801 46.7642 29.3608C47.1506 29.2415 47.4886 29.0682 47.7784 28.8409C48.0739 28.608 48.3153 28.3267 48.5028 27.9972C48.696 27.6619 48.8295 27.2841 48.9034 26.8636L53.1648 26.8892C53.0909 27.6619 52.8665 28.4233 52.4915 29.1733C52.1222 29.9233 51.6136 30.608 50.9659 31.2273C50.3182 31.8409 49.5284 32.3295 48.5966 32.6932C47.6705 33.0568 46.608 33.2386 45.4091 33.2386C43.8295 33.2386 42.4148 32.892 41.1648 32.1989C39.9205 31.5 38.9375 30.483 38.2159 29.1477C37.4943 27.8125 37.1335 26.1875 37.1335 24.2727C37.1335 22.3523 37.5 20.7244 38.233 19.3892C38.9659 18.054 39.9574 17.0398 41.2074 16.3466C42.4574 15.6534 43.858 15.3068 45.4091 15.3068C46.4659 15.3068 47.4432 15.4545 48.3409 15.75C49.2386 16.0398 50.0284 16.4659 50.7102 17.0284C51.392 17.5852 51.946 18.2699 52.3722 19.0824C52.7983 19.8949 53.0625 20.8239 53.1648 21.8693ZM61.6896 33.2472C60.3146 33.2472 59.1328 32.9659 58.1442 32.4034C57.1612 31.8352 56.4027 31.0455 55.8686 30.0341C55.3402 29.017 55.076 27.8381 55.076 26.4972C55.076 25.1506 55.3402 23.9716 55.8686 22.9602C56.4027 21.9432 57.1612 21.1534 58.1442 20.5909C59.1328 20.0227 60.3146 19.7386 61.6896 19.7386C63.0646 19.7386 64.2436 20.0227 65.2266 20.5909C66.2152 21.1534 66.9737 21.9432 67.5021 22.9602C68.0362 23.9716 68.3033 25.1506 68.3033 26.4972C68.3033 27.8381 68.0362 29.017 67.5021 30.0341C66.9737 31.0455 66.2152 31.8352 65.2266 32.4034C64.2436 32.9659 63.0646 33.2472 61.6896 33.2472ZM61.7152 30.1023C62.2152 30.1023 62.6385 29.9489 62.9851 29.642C63.3317 29.3352 63.5959 28.9091 63.7777 28.3636C63.9652 27.8182 64.0589 27.1875 64.0589 26.4716C64.0589 25.7443 63.9652 25.108 63.7777 24.5625C63.5959 24.017 63.3317 23.5909 62.9851 23.2841C62.6385 22.9773 62.2152 22.8239 61.7152 22.8239C61.1982 22.8239 60.7607 22.9773 60.4027 23.2841C60.0504 23.5909 59.7805 24.017 59.593 24.5625C59.4112 25.108 59.3203 25.7443 59.3203 26.4716C59.3203 27.1875 59.4112 27.8182 59.593 28.3636C59.7805 28.9091 60.0504 29.3352 60.4027 29.642C60.7607 29.9489 61.1982 30.1023 61.7152 30.1023ZM70.4382 33V19.9091H74.4013V22.3125H74.5462C74.8189 21.517 75.2791 20.8892 75.9268 20.429C76.5746 19.9688 77.3473 19.7386 78.245 19.7386C79.1541 19.7386 79.9325 19.9716 80.5803 20.4375C81.228 20.9034 81.6399 21.5284 81.8161 22.3125H81.9524C82.1967 21.5341 82.674 20.9119 83.3842 20.446C84.0945 19.9744 84.9325 19.7386 85.8984 19.7386C87.1371 19.7386 88.1428 20.1364 88.9155 20.9318C89.6882 21.7216 90.0746 22.8068 90.0746 24.1875V33H85.907V25.142C85.907 24.4886 85.7393 23.9915 85.4041 23.6506C85.0689 23.304 84.6342 23.1307 84.1001 23.1307C83.5263 23.1307 83.0746 23.3182 82.745 23.6932C82.4212 24.0625 82.2592 24.5597 82.2592 25.1847V33H78.2536V25.0994C78.2536 24.4915 78.0888 24.0114 77.7592 23.6591C77.4297 23.3068 76.995 23.1307 76.4553 23.1307C76.0916 23.1307 75.7706 23.2187 75.4922 23.3949C75.2138 23.5653 74.995 23.8097 74.8359 24.1278C74.6825 24.446 74.6058 24.821 74.6058 25.2528V33H70.4382ZM92.657 33V19.9091H96.62V22.3125H96.7649C97.0376 21.517 97.4979 20.8892 98.1456 20.429C98.7933 19.9688 99.5661 19.7386 100.464 19.7386C101.373 19.7386 102.151 19.9716 102.799 20.4375C103.447 20.9034 103.859 21.5284 104.035 22.3125H104.171C104.415 21.5341 104.893 20.9119 105.603 20.446C106.313 19.9744 107.151 19.7386 108.117 19.7386C109.356 19.7386 110.362 20.1364 111.134 20.9318C111.907 21.7216 112.293 22.8068 112.293 24.1875V33H108.126V25.142C108.126 24.4886 107.958 23.9915 107.623 23.6506C107.288 23.304 106.853 23.1307 106.319 23.1307C105.745 23.1307 105.293 23.3182 104.964 23.6932C104.64 24.0625 104.478 24.5597 104.478 25.1847V33H100.472V25.0994C100.472 24.4915 100.308 24.0114 99.978 23.6591C99.6484 23.3068 99.2138 23.1307 98.674 23.1307C98.3104 23.1307 97.9893 23.2187 97.7109 23.3949C97.4325 23.5653 97.2138 23.8097 97.0547 24.1278C96.9013 24.446 96.8246 24.821 96.8246 25.2528V33H92.657ZM120.987 33.2472C119.612 33.2472 118.43 32.9659 117.441 32.4034C116.458 31.8352 115.7 31.0455 115.165 30.0341C114.637 29.017 114.373 27.8381 114.373 26.4972C114.373 25.1506 114.637 23.9716 115.165 22.9602C115.7 21.9432 116.458 21.1534 117.441 20.5909C118.43 20.0227 119.612 19.7386 120.987 19.7386C122.362 19.7386 123.54 20.0227 124.523 20.5909C125.512 21.1534 126.271 21.9432 126.799 22.9602C127.333 23.9716 127.6 25.1506 127.6 26.4972C127.6 27.8381 127.333 29.017 126.799 30.0341C126.271 31.0455 125.512 31.8352 124.523 32.4034C123.54 32.9659 122.362 33.2472 120.987 33.2472ZM121.012 30.1023C121.512 30.1023 121.935 29.9489 122.282 29.642C122.629 29.3352 122.893 28.9091 123.075 28.3636C123.262 27.8182 123.356 27.1875 123.356 26.4716C123.356 25.7443 123.262 25.108 123.075 24.5625C122.893 24.017 122.629 23.5909 122.282 23.2841C121.935 22.9773 121.512 22.8239 121.012 22.8239C120.495 22.8239 120.058 22.9773 119.7 23.2841C119.347 23.5909 119.077 24.017 118.89 24.5625C118.708 25.108 118.617 25.7443 118.617 26.4716C118.617 27.1875 118.708 27.8182 118.89 28.3636C119.077 28.9091 119.347 29.3352 119.7 29.642C120.058 29.9489 120.495 30.1023 121.012 30.1023ZM133.903 25.5341V33H129.735V19.9091H133.698V22.3125H133.843C134.133 21.5114 134.627 20.8835 135.326 20.429C136.025 19.9688 136.857 19.7386 137.823 19.7386C138.744 19.7386 139.542 19.946 140.218 20.3608C140.9 20.7699 141.428 21.3437 141.803 22.0824C142.184 22.8153 142.371 23.6733 142.366 24.6562V33H138.198V25.4744C138.204 24.7472 138.019 24.179 137.644 23.7699C137.275 23.3608 136.761 23.1562 136.102 23.1562C135.664 23.1562 135.278 23.2528 134.942 23.446C134.613 23.6335 134.357 23.9034 134.175 24.2557C133.999 24.608 133.908 25.0341 133.903 25.5341Z" fill="white"/>
</g>
<defs>
<filter id="filter0_d_205_39" x="12.2468" y="13.3068" width="134.127" height="23.9403" filterUnits="userSpaceOnUse" color-interpolation-filters="sRGB">
<feFlood flood-opacity="0" result="BackgroundImageFix"/>
<feColorMatrix in="SourceAlpha" type="matrix" values="0 0 0 0 0 0 0 0 0 0 0 0 0 0 0 0 0 0 127 0" result="hardAlpha"/>
<feOffset dx="1" dy="1"/>
<feGaussianBlur stdDeviation="1.5"/>
<feComposite in2="hardAlpha" operator="out"/>
<feColorMatrix type="matrix" values="0 0 0 0 0 0 0 0 0 0 0 0 0 0 0 0 0 0 0.25 0"/>
<feBlend mode="normal" in2="BackgroundImageFix" result="effect1_dropShadow_205_39"/>
<feBlend mode="normal" in="SourceGraphic" in2="effect1_dropShadow_205_39" result="shape"/>
</filter>
</defs>
</svg>
