<svg width="175" height="50" viewBox="0 0 175 50" fill="none" xmlns="http://www.w3.org/2000/svg">
<path d="M0 0H125C152.614 0 175 22.3858 175 50V50H50C22.3858 50 0 27.6142 0 0V0Z" fill="#FC85B0"/>
<path d="M17.9968 29.7955C17.3093 29.7955 16.6815 29.6278 16.1133 29.2926C15.5451 28.9517 15.0906 28.4972 14.7496 27.929C14.4144 27.3608 14.2468 26.733 14.2468 26.0455C14.2468 25.3523 14.4144 24.7244 14.7496 24.1619C15.0906 23.5937 15.5451 23.142 16.1133 22.8068C16.6815 22.4659 17.3093 22.2955 17.9968 22.2955C18.69 22.2955 19.3178 22.4659 19.8803 22.8068C20.4485 23.142 20.9002 23.5937 21.2354 24.1619C21.5763 24.7244 21.7468 25.3523 21.7468 26.0455C21.7468 26.733 21.5763 27.3608 21.2354 27.929C20.9002 28.4972 20.4485 28.9517 19.8803 29.2926C19.3178 29.6278 18.69 29.7955 17.9968 29.7955ZM37.321 33V15.5455H49.4915V18.9716H41.5398V22.5511H48.8693V25.9858H41.5398V29.5739H49.4915V33H37.321ZM52.1335 37.9091V19.9091H56.2585V22.1506H56.3864C56.5568 21.7528 56.7983 21.3693 57.1108 21C57.429 20.6307 57.8324 20.3295 58.321 20.0966C58.8153 19.858 59.4062 19.7386 60.0938 19.7386C61.0028 19.7386 61.8523 19.9773 62.642 20.4545C63.4375 20.9318 64.0795 21.6676 64.5682 22.6619C65.0568 23.6562 65.3011 24.9233 65.3011 26.4631C65.3011 27.946 65.0653 29.1875 64.5938 30.1875C64.1278 31.1875 63.4972 31.9375 62.7017 32.4375C61.9119 32.9375 61.0341 33.1875 60.0682 33.1875C59.4091 33.1875 58.8381 33.0795 58.3551 32.8636C57.8722 32.6477 57.4659 32.3636 57.1364 32.0114C56.8125 31.6591 56.5625 31.2812 56.3864 30.8778H56.3011V37.9091H52.1335ZM56.2159 26.4545C56.2159 27.1591 56.3097 27.7727 56.4972 28.2955C56.6903 28.8182 56.9659 29.2244 57.3239 29.5142C57.6875 29.7983 58.1222 29.9403 58.6278 29.9403C59.1392 29.9403 59.5739 29.7983 59.9318 29.5142C60.2898 29.2244 60.5597 28.8182 60.7415 28.2955C60.929 27.7727 61.0227 27.1591 61.0227 26.4545C61.0227 25.75 60.929 25.1392 60.7415 24.6222C60.5597 24.1051 60.2898 23.7045 59.9318 23.4205C59.5795 23.1364 59.1449 22.9943 58.6278 22.9943C58.1165 22.9943 57.6818 23.1335 57.3239 23.4119C56.9659 23.6903 56.6903 24.0881 56.4972 24.6051C56.3097 25.1222 56.2159 25.7386 56.2159 26.4545ZM67.4851 33V19.9091H71.6527V33H67.4851ZM69.5732 18.3835C68.9879 18.3835 68.4851 18.1903 68.0646 17.804C67.6442 17.4119 67.4339 16.9403 67.4339 16.3892C67.4339 15.8437 67.6442 15.3778 68.0646 14.9915C68.4851 14.5994 68.9879 14.4034 69.5732 14.4034C70.1641 14.4034 70.6669 14.5994 71.0817 14.9915C71.5021 15.3778 71.7124 15.8437 71.7124 16.3892C71.7124 16.9403 71.5021 17.4119 71.0817 17.804C70.6669 18.1903 70.1641 18.3835 69.5732 18.3835ZM80.4162 33.2472C79.0355 33.2472 77.8509 32.9631 76.8622 32.3949C75.8793 31.8267 75.1236 31.0369 74.5952 30.0256C74.0668 29.0085 73.8026 27.8324 73.8026 26.4972C73.8026 25.1562 74.0668 23.9801 74.5952 22.9688C75.1293 21.9517 75.8878 21.1591 76.8707 20.5909C77.8594 20.0227 79.0384 19.7386 80.4077 19.7386C81.6179 19.7386 82.6719 19.9574 83.5696 20.3949C84.473 20.8324 85.1776 21.4517 85.6832 22.2528C86.1946 23.0483 86.4645 23.983 86.4929 25.0568H82.598C82.5185 24.3864 82.2912 23.8608 81.9162 23.4801C81.5469 23.0994 81.0639 22.9091 80.4673 22.9091C79.9844 22.9091 79.5611 23.0455 79.1974 23.3182C78.8338 23.5852 78.5497 23.983 78.3452 24.5114C78.1463 25.0341 78.0469 25.6818 78.0469 26.4545C78.0469 27.2273 78.1463 27.8807 78.3452 28.4148C78.5497 28.9432 78.8338 29.3437 79.1974 29.6165C79.5611 29.8835 79.9844 30.017 80.4673 30.017C80.8537 30.017 81.1946 29.9347 81.4901 29.7699C81.7912 29.6051 82.0384 29.3636 82.2315 29.0455C82.4247 28.7216 82.5469 28.3295 82.598 27.8693H86.4929C86.4531 28.9489 86.1832 29.892 85.6832 30.6989C85.1889 31.5057 84.4929 32.1335 83.5952 32.5824C82.7031 33.0256 81.6435 33.2472 80.4162 33.2472Z" fill="white"/>
</svg>
