<svg width="175" height="50" viewBox="0 0 175 50" fill="none" xmlns="http://www.w3.org/2000/svg">
<path d="M0 0H125C152.614 0 175 22.3858 175 50V50H50C22.3858 50 0 27.6142 0 0V0Z" fill="#E2D6AA"/>
<path d="M17.9968 29.7955C17.3093 29.7955 16.6815 29.6278 16.1133 29.2926C15.5451 28.9517 15.0906 28.4972 14.7496 27.929C14.4144 27.3608 14.2468 26.733 14.2468 26.0455C14.2468 25.3523 14.4144 24.7244 14.7496 24.1619C15.0906 23.5937 15.5451 23.142 16.1133 22.8068C16.6815 22.4659 17.3093 22.2955 17.9968 22.2955C18.69 22.2955 19.3178 22.4659 19.8803 22.8068C20.4485 23.142 20.9002 23.5937 21.2354 24.1619C21.5763 24.7244 21.7468 25.3523 21.7468 26.0455C21.7468 26.733 21.5763 27.3608 21.2354 27.929C20.9002 28.4972 20.4485 28.9517 19.8803 29.2926C19.3178 29.6278 18.69 29.7955 17.9968 29.7955ZM37.321 33V15.5455H41.5398V29.5739H48.8011V33H37.321ZM57.1044 33.2472C55.7351 33.2472 54.5533 32.9773 53.5589 32.4375C52.5703 31.892 51.8089 31.1165 51.2749 30.1108C50.7464 29.0994 50.4822 27.8977 50.4822 26.5057C50.4822 25.1534 50.7493 23.9716 51.2834 22.9602C51.8175 21.9432 52.5703 21.1534 53.5419 20.5909C54.5135 20.0227 55.6584 19.7386 56.9766 19.7386C57.9084 19.7386 58.7607 19.8835 59.5334 20.1733C60.3061 20.4631 60.9737 20.892 61.5362 21.4602C62.0987 22.0284 62.5362 22.7301 62.8487 23.5653C63.1612 24.3949 63.3175 25.3466 63.3175 26.4205V27.4602H51.9396V25.0398H59.4396C59.4339 24.5966 59.3288 24.2017 59.1243 23.8551C58.9197 23.5085 58.6385 23.2386 58.2805 23.0455C57.9283 22.8466 57.522 22.7472 57.0618 22.7472C56.5959 22.7472 56.1783 22.8523 55.8089 23.0625C55.4396 23.267 55.147 23.5483 54.9311 23.9062C54.7152 24.2585 54.6016 24.6591 54.5902 25.108V27.571C54.5902 28.1051 54.6953 28.5739 54.9055 28.9773C55.1158 29.375 55.4141 29.6847 55.8004 29.9062C56.1868 30.1278 56.647 30.2386 57.1811 30.2386C57.5504 30.2386 57.8857 30.1875 58.1868 30.0852C58.4879 29.983 58.7464 29.8324 58.9624 29.6335C59.1783 29.4347 59.3402 29.1903 59.4482 28.9006L63.2749 29.0114C63.1158 29.8693 62.7663 30.6165 62.2266 31.2528C61.6925 31.8835 60.9908 32.375 60.1214 32.7273C59.2521 33.0739 58.2464 33.2472 57.1044 33.2472ZM71.5483 38.1818C70.304 38.1818 69.2386 38.0085 68.3523 37.6619C67.4659 37.3153 66.7699 36.8409 66.2642 36.2386C65.7585 35.6364 65.4545 34.9545 65.3523 34.1932L69.2983 33.9716C69.3722 34.2386 69.5085 34.4716 69.7074 34.6705C69.9119 34.8693 70.1761 35.0227 70.5 35.1307C70.8295 35.2386 71.2159 35.2926 71.6591 35.2926C72.358 35.2926 72.9347 35.1222 73.3892 34.7812C73.8494 34.446 74.0795 33.858 74.0795 33.017V30.7159H73.9347C73.7699 31.1193 73.5199 31.4801 73.1847 31.7983C72.8494 32.1165 72.4318 32.3665 71.9318 32.5483C71.4375 32.7301 70.8693 32.821 70.2273 32.821C69.2727 32.821 68.3977 32.5994 67.6023 32.1562C66.8125 31.7074 66.179 31.0142 65.7017 30.0767C65.2301 29.1335 64.9943 27.9205 64.9943 26.4375C64.9943 24.9091 65.2386 23.6506 65.7273 22.6619C66.2159 21.6676 66.8551 20.9318 67.6449 20.4545C68.4403 19.9773 69.2955 19.7386 70.2102 19.7386C70.8977 19.7386 71.4858 19.858 71.9744 20.0966C72.4688 20.3295 72.875 20.6307 73.1932 21C73.5114 21.3693 73.7528 21.7528 73.9176 22.1506H74.0369V19.9091H78.1875V33.0511C78.1875 34.1591 77.9091 35.0938 77.3523 35.8551C76.7955 36.6165 76.017 37.1932 75.017 37.5852C74.017 37.983 72.8608 38.1818 71.5483 38.1818ZM71.6761 29.7869C72.1818 29.7869 72.6136 29.6534 72.9716 29.3864C73.3295 29.1193 73.6051 28.7358 73.7983 28.2358C73.9915 27.7358 74.0881 27.1364 74.0881 26.4375C74.0881 25.7273 73.9915 25.1165 73.7983 24.6051C73.6108 24.0881 73.3352 23.6903 72.9716 23.4119C72.6136 23.1335 72.1818 22.9943 71.6761 22.9943C71.1591 22.9943 70.7216 23.1364 70.3636 23.4205C70.0057 23.7045 69.733 24.1051 69.5455 24.6222C69.3636 25.1335 69.2727 25.7386 69.2727 26.4375C69.2727 27.1364 69.3665 27.7358 69.554 28.2358C69.7415 28.7358 70.0114 29.1193 70.3636 29.3864C70.7216 29.6534 71.1591 29.7869 71.6761 29.7869ZM86.9638 33.2472C85.5945 33.2472 84.4126 32.9773 83.4183 32.4375C82.4297 31.892 81.6683 31.1165 81.1342 30.1108C80.6058 29.0994 80.3416 27.8977 80.3416 26.5057C80.3416 25.1534 80.6087 23.9716 81.1428 22.9602C81.6768 21.9432 82.4297 21.1534 83.4013 20.5909C84.3729 20.0227 85.5178 19.7386 86.8359 19.7386C87.7678 19.7386 88.62 19.8835 89.3928 20.1733C90.1655 20.4631 90.8331 20.892 91.3956 21.4602C91.9581 22.0284 92.3956 22.7301 92.7081 23.5653C93.0206 24.3949 93.1768 25.3466 93.1768 26.4205V27.4602H81.799V25.0398H89.299C89.2933 24.5966 89.1882 24.2017 88.9837 23.8551C88.7791 23.5085 88.4979 23.2386 88.1399 23.0455C87.7876 22.8466 87.3814 22.7472 86.9212 22.7472C86.4553 22.7472 86.0376 22.8523 85.6683 23.0625C85.299 23.267 85.0064 23.5483 84.7905 23.9062C84.5746 24.2585 84.4609 24.6591 84.4496 25.108V27.571C84.4496 28.1051 84.5547 28.5739 84.7649 28.9773C84.9751 29.375 85.2734 29.6847 85.6598 29.9062C86.0462 30.1278 86.5064 30.2386 87.0405 30.2386C87.4098 30.2386 87.745 30.1875 88.0462 30.0852C88.3473 29.983 88.6058 29.8324 88.8217 29.6335C89.0376 29.4347 89.1996 29.1903 89.3075 28.9006L93.1342 29.0114C92.9751 29.8693 92.6257 30.6165 92.0859 31.2528C91.5518 31.8835 90.8501 32.375 89.9808 32.7273C89.1115 33.0739 88.1058 33.2472 86.9638 33.2472ZM99.473 25.5341V33H95.3054V19.9091H99.2685V22.3125H99.4134C99.7031 21.5114 100.197 20.8835 100.896 20.429C101.595 19.9688 102.428 19.7386 103.393 19.7386C104.314 19.7386 105.112 19.946 105.788 20.3608C106.47 20.7699 106.999 21.3437 107.374 22.0824C107.754 22.8153 107.942 23.6733 107.936 24.6562V33H103.768V25.4744C103.774 24.7472 103.589 24.179 103.214 23.7699C102.845 23.3608 102.331 23.1562 101.672 23.1562C101.234 23.1562 100.848 23.2528 100.513 23.446C100.183 23.6335 99.9276 23.9034 99.7457 24.2557C99.5696 24.608 99.4787 25.0341 99.473 25.5341ZM115.298 33.1875C114.332 33.1875 113.454 32.9375 112.664 32.4375C111.874 31.9375 111.244 31.1875 110.772 30.1875C110.3 29.1875 110.065 27.946 110.065 26.4631C110.065 24.9233 110.309 23.6562 110.798 22.6619C111.286 21.6676 111.925 20.9318 112.715 20.4545C113.511 19.9773 114.366 19.7386 115.281 19.7386C115.968 19.7386 116.556 19.858 117.045 20.0966C117.533 20.3295 117.937 20.6307 118.255 21C118.573 21.3693 118.815 21.7528 118.979 22.1506H119.065V15.5455H123.232V33H119.107V30.8778H118.979C118.803 31.2812 118.553 31.6591 118.229 32.0114C117.906 32.3636 117.499 32.6477 117.011 32.8636C116.528 33.0795 115.957 33.1875 115.298 33.1875ZM116.746 29.9403C117.252 29.9403 117.684 29.7983 118.042 29.5142C118.4 29.2244 118.675 28.8182 118.869 28.2955C119.062 27.7727 119.158 27.1591 119.158 26.4545C119.158 25.7386 119.062 25.1222 118.869 24.6051C118.681 24.0881 118.406 23.6903 118.042 23.4119C117.684 23.1335 117.252 22.9943 116.746 22.9943C116.229 22.9943 115.792 23.1364 115.434 23.4205C115.076 23.7045 114.803 24.1051 114.616 24.6222C114.434 25.1392 114.343 25.75 114.343 26.4545C114.343 27.1591 114.437 27.7727 114.624 28.2955C114.812 28.8182 115.082 29.2244 115.434 29.5142C115.792 29.7983 116.229 29.9403 116.746 29.9403ZM129.558 33.2216C128.723 33.2216 127.982 33.0824 127.334 32.804C126.692 32.5199 126.183 32.0937 125.808 31.5256C125.439 30.9517 125.254 30.233 125.254 29.3693C125.254 28.642 125.382 28.0284 125.638 27.5284C125.893 27.0284 126.246 26.6222 126.695 26.3097C127.143 25.9972 127.661 25.7614 128.246 25.6023C128.831 25.4375 129.456 25.3267 130.121 25.2699C130.865 25.2017 131.464 25.1307 131.919 25.0568C132.374 24.9773 132.703 24.8665 132.908 24.7244C133.118 24.5767 133.223 24.3693 133.223 24.1023V24.0597C133.223 23.6222 133.072 23.2841 132.771 23.0455C132.47 22.8068 132.064 22.6875 131.553 22.6875C131.001 22.6875 130.558 22.8068 130.223 23.0455C129.888 23.2841 129.675 23.6136 129.584 24.0341L125.74 23.8977C125.854 23.1023 126.146 22.392 126.618 21.767C127.095 21.1364 127.749 20.642 128.578 20.2841C129.413 19.9205 130.416 19.7386 131.587 19.7386C132.422 19.7386 133.192 19.8381 133.896 20.0369C134.601 20.2301 135.214 20.5142 135.737 20.8892C136.26 21.2585 136.663 21.7131 136.947 22.2528C137.237 22.7926 137.382 23.4091 137.382 24.1023V33H133.462V31.1761H133.359C133.126 31.6193 132.828 31.9943 132.464 32.3011C132.107 32.608 131.683 32.8381 131.195 32.9915C130.712 33.1449 130.166 33.2216 129.558 33.2216ZM130.845 30.4943C131.294 30.4943 131.697 30.4034 132.055 30.2216C132.419 30.0398 132.709 29.7898 132.925 29.4716C133.141 29.1477 133.249 28.7727 133.249 28.3466V27.1023C133.129 27.1648 132.984 27.2216 132.814 27.2727C132.649 27.3239 132.467 27.3722 132.268 27.4176C132.07 27.4631 131.865 27.5028 131.655 27.5369C131.445 27.571 131.243 27.6023 131.05 27.6307C130.658 27.6932 130.322 27.7898 130.044 27.9205C129.771 28.0511 129.561 28.2216 129.413 28.4318C129.271 28.6364 129.2 28.8807 129.2 29.1648C129.2 29.5966 129.354 29.9261 129.661 30.1534C129.973 30.3807 130.368 30.4943 130.845 30.4943ZM139.93 33V19.9091H143.979V22.2955H144.115C144.354 21.4318 144.743 20.7898 145.283 20.3693C145.822 19.9432 146.45 19.7301 147.166 19.7301C147.359 19.7301 147.558 19.7443 147.763 19.7727C147.967 19.7955 148.158 19.8324 148.334 19.8835V23.5057C148.135 23.4375 147.874 23.3835 147.55 23.3438C147.232 23.304 146.947 23.2841 146.697 23.2841C146.203 23.2841 145.757 23.3949 145.359 23.6165C144.967 23.8324 144.658 24.1364 144.43 24.5284C144.209 24.9148 144.098 25.3693 144.098 25.892V33H139.93ZM152.979 37.9091C152.479 37.9091 152.007 37.8693 151.564 37.7898C151.121 37.7159 150.74 37.6165 150.422 37.4915L151.342 34.4659C151.751 34.6023 152.121 34.6818 152.45 34.7045C152.786 34.7273 153.072 34.6733 153.311 34.5426C153.555 34.4176 153.743 34.1932 153.874 33.8693L154.036 33.4773L149.382 19.9091H153.746L156.158 29.25H156.294L158.74 19.9091H163.129L158.195 34.2528C157.956 34.9688 157.618 35.5994 157.18 36.1449C156.749 36.696 156.189 37.1278 155.501 37.4403C154.82 37.7528 153.979 37.9091 152.979 37.9091Z" fill="white"/>
</svg>
