<svg width="175" height="50" viewBox="0 0 175 50" fill="none" xmlns="http://www.w3.org/2000/svg">
<path d="M0 0H125C152.614 0 175 22.3858 175 50V50H50C22.3858 50 0 27.6142 0 0V0Z" fill="#464CE2"/>
<path d="M17.9968 29.7955C17.3093 29.7955 16.6815 29.6278 16.1133 29.2926C15.5451 28.9517 15.0906 28.4972 14.7496 27.929C14.4144 27.3608 14.2468 26.733 14.2468 26.0455C14.2468 25.3523 14.4144 24.7244 14.7496 24.1619C15.0906 23.5937 15.5451 23.142 16.1133 22.8068C16.6815 22.4659 17.3093 22.2955 17.9968 22.2955C18.69 22.2955 19.3178 22.4659 19.8803 22.8068C20.4485 23.142 20.9002 23.5937 21.2354 24.1619C21.5763 24.7244 21.7468 25.3523 21.7468 26.0455C21.7468 26.733 21.5763 27.3608 21.2354 27.929C20.9002 28.4972 20.4485 28.9517 19.8803 29.2926C19.3178 29.6278 18.69 29.7955 17.9968 29.7955ZM37.321 33V15.5455H44.5312C45.8381 15.5455 46.9659 15.7812 47.9148 16.2528C48.8693 16.7187 49.6051 17.3892 50.1222 18.2642C50.6392 19.1335 50.8977 20.1648 50.8977 21.358C50.8977 22.5682 50.6335 23.5966 50.1051 24.4432C49.5767 25.2841 48.8267 25.9261 47.8551 26.3693C46.8835 26.8068 45.733 27.0256 44.4034 27.0256H39.8438V23.7017H43.6193C44.2557 23.7017 44.7869 23.6193 45.2131 23.4545C45.6449 23.2841 45.9716 23.0284 46.1932 22.6875C46.4148 22.3409 46.5256 21.8977 46.5256 21.358C46.5256 20.8182 46.4148 20.3722 46.1932 20.0199C45.9716 19.6619 45.6449 19.3949 45.2131 19.2188C44.7813 19.0369 44.25 18.946 43.6193 18.946H41.5398V33H37.321ZM47.1477 25.0227L51.4943 33H46.892L42.6307 25.0227H47.1477ZM56.902 33.2216C56.0668 33.2216 55.3253 33.0824 54.6776 32.804C54.0355 32.5199 53.527 32.0937 53.152 31.5256C52.7827 30.9517 52.598 30.233 52.598 29.3693C52.598 28.642 52.7259 28.0284 52.9815 27.5284C53.2372 27.0284 53.5895 26.6222 54.0384 26.3097C54.4872 25.9972 55.0043 25.7614 55.5895 25.6023C56.1747 25.4375 56.7997 25.3267 57.4645 25.2699C58.2088 25.2017 58.8082 25.1307 59.2628 25.0568C59.7173 24.9773 60.0469 24.8665 60.2514 24.7244C60.4616 24.5767 60.5668 24.3693 60.5668 24.1023V24.0597C60.5668 23.6222 60.4162 23.2841 60.1151 23.0455C59.8139 22.8068 59.4077 22.6875 58.8963 22.6875C58.3452 22.6875 57.902 22.8068 57.5668 23.0455C57.2315 23.2841 57.0185 23.6136 56.9276 24.0341L53.0838 23.8977C53.1974 23.1023 53.4901 22.392 53.9616 21.767C54.4389 21.1364 55.0923 20.642 55.9219 20.2841C56.7571 19.9205 57.7599 19.7386 58.9304 19.7386C59.7656 19.7386 60.5355 19.8381 61.2401 20.0369C61.9446 20.2301 62.5582 20.5142 63.081 20.8892C63.6037 21.2585 64.0071 21.7131 64.2912 22.2528C64.581 22.7926 64.7259 23.4091 64.7259 24.1023V33H60.8054V31.1761H60.7031C60.4702 31.6193 60.1719 31.9943 59.8082 32.3011C59.4503 32.608 59.027 32.8381 58.5384 32.9915C58.0554 33.1449 57.5099 33.2216 56.902 33.2216ZM58.1889 30.4943C58.6378 30.4943 59.0412 30.4034 59.3991 30.2216C59.7628 30.0398 60.0526 29.7898 60.2685 29.4716C60.4844 29.1477 60.5923 28.7727 60.5923 28.3466V27.1023C60.473 27.1648 60.3281 27.2216 60.1577 27.2727C59.9929 27.3239 59.8111 27.3722 59.6122 27.4176C59.4134 27.4631 59.2088 27.5028 58.9986 27.5369C58.7884 27.571 58.5866 27.6023 58.3935 27.6307C58.0014 27.6932 57.6662 27.7898 57.3878 27.9205C57.1151 28.0511 56.9048 28.2216 56.7571 28.4318C56.6151 28.6364 56.544 28.8807 56.544 29.1648C56.544 29.5966 56.6974 29.9261 57.0043 30.1534C57.3168 30.3807 57.7116 30.4943 58.1889 30.4943ZM67.2741 33V19.9091H71.3224V22.2955H71.4588C71.6974 21.4318 72.0866 20.7898 72.6264 20.3693C73.1662 19.9432 73.794 19.7301 74.5099 19.7301C74.7031 19.7301 74.902 19.7443 75.1065 19.7727C75.3111 19.7955 75.5014 19.8324 75.6776 19.8835V23.5057C75.4787 23.4375 75.2173 23.3835 74.8935 23.3438C74.5753 23.304 74.2912 23.2841 74.0412 23.2841C73.5469 23.2841 73.1009 23.3949 72.7031 23.6165C72.3111 23.8324 72.0014 24.1364 71.7741 24.5284C71.5526 24.9148 71.4418 25.3693 71.4418 25.892V33H67.2741ZM82.8153 33.2472C81.446 33.2472 80.2642 32.9773 79.2699 32.4375C78.2813 31.892 77.5199 31.1165 76.9858 30.1108C76.4574 29.0994 76.1932 27.8977 76.1932 26.5057C76.1932 25.1534 76.4602 23.9716 76.9943 22.9602C77.5284 21.9432 78.2812 21.1534 79.2528 20.5909C80.2244 20.0227 81.3693 19.7386 82.6875 19.7386C83.6193 19.7386 84.4716 19.8835 85.2443 20.1733C86.017 20.4631 86.6847 20.892 87.2472 21.4602C87.8097 22.0284 88.2472 22.7301 88.5597 23.5653C88.8722 24.3949 89.0284 25.3466 89.0284 26.4205V27.4602H77.6506V25.0398H85.1506C85.1449 24.5966 85.0398 24.2017 84.8352 23.8551C84.6307 23.5085 84.3494 23.2386 83.9915 23.0455C83.6392 22.8466 83.233 22.7472 82.7727 22.7472C82.3068 22.7472 81.8892 22.8523 81.5199 23.0625C81.1506 23.267 80.858 23.5483 80.642 23.9062C80.4261 24.2585 80.3125 24.6591 80.3011 25.108V27.571C80.3011 28.1051 80.4063 28.5739 80.6165 28.9773C80.8267 29.375 81.125 29.6847 81.5114 29.9062C81.8977 30.1278 82.358 30.2386 82.892 30.2386C83.2614 30.2386 83.5966 30.1875 83.8977 30.0852C84.1989 29.983 84.4574 29.8324 84.6733 29.6335C84.8892 29.4347 85.0511 29.1903 85.1591 28.9006L88.9858 29.0114C88.8267 29.8693 88.4773 30.6165 87.9375 31.2528C87.4034 31.8835 86.7017 32.375 85.8324 32.7273C84.9631 33.0739 83.9574 33.2472 82.8153 33.2472Z" fill="white"/>
</svg>
