<svg class="border shadow-md" viewBox="0 0 881.76 440.88" style="width: 881.76px; height: 440.88px;" xmlns="http://www.w3.org/2000/svg" preserveAspectRatio="none"><rect class="bg" id="bg" x="0" y="0" width="881.76" height="440.88" fill="#061822"/><path d="M 0 -33.91384615384615 L 0 -33.91&#10;                L 58.78 -5.91&#10;                L 176.352 -33.91 L 176.352 -33.91&#10;                L 243.35 -16.96&#10;                L 352.704 -33.91 L 352.704 -33.91&#10;                L 411.49 -4.91&#10;                L 529.056 -33.91 L 529.056 -33.91&#10;                L 641.06 -16.91&#10;                L 705.408 -33.91 L 705.408 -33.91&#10;                L 764.19 -16.96&#10;                L 881.76 -33.91 L 881.76 -33.91&#10;                L 1012.76 -16.96&#10;                L 1058.112 -33.91  H 931.76 V 540.88 H -100 V -33.91100 H 0 Z" fill="none" stroke="#173213" stroke-width="20"/><path d="M 0 0 L 0 0.00&#10;                L 87.00 16.96&#10;                L 176.352 0.00 L 176.352 0.00&#10;                L 266.35 26.00&#10;                L 352.704 0.00 L 352.704 0.00&#10;                L 412.70 16.96&#10;                L 529.056 0.00 L 529.056 0.00&#10;                L 616.06 32.00&#10;                L 705.408 0.00 L 705.408 0.00&#10;                L 802.41 26.00&#10;                L 881.76 0.00 L 881.76 0.00&#10;                L 1012.76 31.00&#10;                L 1058.112 0.00  H 931.76 V 540.88 H -100 V 0.00100 H 0 Z" fill="none" stroke="#183116" stroke-width="20"/><path d="M 0 33.91384615384615 L 0 33.91&#10;                L 58.78 56.91&#10;                L 176.352 33.91 L 176.352 33.91&#10;                L 235.14 52.91&#10;                L 352.704 33.91 L 352.704 33.91&#10;                L 411.49 50.87&#10;                L 529.056 33.91 L 529.056 33.91&#10;                L 639.06 61.91&#10;                L 705.408 33.91 L 705.408 33.91&#10;                L 764.19 50.87&#10;                L 881.76 33.91 L 881.76 33.91&#10;                L 940.54 65.91&#10;                L 1058.112 33.91  H 931.76 V 540.88 H -100 V 33.91100 H 0 Z" fill="none" stroke="#193019" stroke-width="20"/><path d="M 0 67.8276923076923 L 0 67.83&#10;                L 58.78 84.78&#10;                L 176.352 67.83 L 176.352 67.83&#10;                L 235.14 84.78&#10;                L 352.704 67.83 L 352.704 67.83&#10;                L 411.49 84.78&#10;                L 529.056 67.83 L 529.056 67.83&#10;                L 587.84 84.78&#10;                L 705.408 67.83 L 705.408 67.83&#10;                L 797.41 84.78&#10;                L 881.76 67.83 L 881.76 67.83&#10;                L 976.76 100.83&#10;                L 1058.112 67.83  H 931.76 V 540.88 H -100 V 67.83100 H 0 Z" fill="none" stroke="#1a2f1c" stroke-width="20"/><path d="M 0 101.74153846153845 L 0 101.74&#10;                L 63.00 118.70&#10;                L 176.352 101.74 L 176.352 101.74&#10;                L 294.35 126.74&#10;                L 352.704 101.74 L 352.704 101.74&#10;                L 411.49 132.74&#10;                L 529.056 101.74 L 529.056 101.74&#10;                L 587.84 118.70&#10;                L 705.408 101.74 L 705.408 101.74&#10;                L 808.41 126.74&#10;                L 881.76 101.74 L 881.76 101.74&#10;                L 950.76 130.74&#10;                L 1058.112 101.74  H 931.76 V 540.88 H -100 V 101.74100 H 0 Z" fill="none" stroke="#1b2e1f" stroke-width="20"/><path d="M 0 135.6553846153846 L 0 135.66&#10;                L 58.78 160.66&#10;                L 176.352 135.66 L 176.352 135.66&#10;                L 250.35 152.61&#10;                L 352.704 135.66 L 352.704 135.66&#10;                L 411.49 163.66&#10;                L 529.056 135.66 L 529.056 135.66&#10;                L 652.06 152.61&#10;                L 705.408 135.66 L 705.408 135.66&#10;                L 764.19 152.61&#10;                L 881.76 135.66 L 881.76 135.66&#10;                L 940.54 152.61&#10;                L 1058.112 135.66  H 931.76 V 540.88 H -100 V 135.66100 H 0 Z" fill="none" stroke="#1c2d22" stroke-width="20"/><path d="M 0 169.56923076923076 L 0 169.57&#10;                L 112.00 191.57&#10;                L 176.352 169.57 L 176.352 169.57&#10;                L 304.35 192.57&#10;                L 352.704 169.57 L 352.704 169.57&#10;                L 416.70 200.57&#10;                L 529.056 169.57 L 529.056 169.57&#10;                L 641.06 186.53&#10;                L 705.408 169.57 L 705.408 169.57&#10;                L 764.19 186.53&#10;                L 881.76 169.57 L 881.76 169.57&#10;                L 973.76 194.57&#10;                L 1058.112 169.57  H 931.76 V 540.88 H -100 V 169.57100 H 0 Z" fill="none" stroke="#1d2c25" stroke-width="20"/><path d="M 0 203.4830769230769 L 0 203.48&#10;                L 119.00 220.44&#10;                L 176.352 203.48 L 176.352 203.48&#10;                L 254.35 220.44&#10;                L 352.704 203.48 L 352.704 203.48&#10;                L 440.70 220.44&#10;                L 529.056 203.48 L 529.056 203.48&#10;                L 609.06 233.48&#10;                L 705.408 203.48 L 705.408 203.48&#10;                L 796.41 220.44&#10;                L 881.76 203.48 L 881.76 203.48&#10;                L 940.54 227.48&#10;                L 1058.112 203.48  H 931.76 V 540.88 H -100 V 203.48100 H 0 Z" fill="none" stroke="#1e2b28" stroke-width="20"/><path d="M 0 237.39692307692306 L 0 237.40&#10;                L 58.78 269.40&#10;                L 176.352 237.40 L 176.352 237.40&#10;                L 293.35 254.35&#10;                L 352.704 237.40 L 352.704 237.40&#10;                L 411.49 269.40&#10;                L 529.056 237.40 L 529.056 237.40&#10;                L 587.84 254.35&#10;                L 705.408 237.40 L 705.408 237.40&#10;                L 819.41 256.40&#10;                L 881.76 237.40 L 881.76 237.40&#10;                L 998.76 254.35&#10;                L 1058.112 237.40  H 931.76 V 540.88 H -100 V 237.40100 H 0 Z" fill="none" stroke="#1f2a2b" stroke-width="20"/><path d="M 0 271.3107692307692 L 0 271.31&#10;                L 58.78 288.27&#10;                L 176.352 271.31 L 176.352 271.31&#10;                L 302.35 299.31&#10;                L 352.704 271.31 L 352.704 271.31&#10;                L 417.70 288.27&#10;                L 529.056 271.31 L 529.056 271.31&#10;                L 626.06 288.27&#10;                L 705.408 271.31 L 705.408 271.31&#10;                L 764.19 300.31&#10;                L 881.76 271.31 L 881.76 271.31&#10;                L 940.54 288.27&#10;                L 1058.112 271.31  H 931.76 V 540.88 H -100 V 271.31100 H 0 Z" fill="none" stroke="#20292e" stroke-width="20"/><path d="M 0 305.2246153846154 L 0 305.22&#10;                L 58.78 322.22&#10;                L 176.352 305.22 L 176.352 305.22&#10;                L 282.35 322.18&#10;                L 352.704 305.22 L 352.704 305.22&#10;                L 459.70 322.18&#10;                L 529.056 305.22 L 529.056 305.22&#10;                L 622.06 322.18&#10;                L 705.408 305.22 L 705.408 305.22&#10;                L 828.41 326.22&#10;                L 881.76 305.22 L 881.76 305.22&#10;                L 940.54 330.22&#10;                L 1058.112 305.22  H 931.76 V 540.88 H -100 V 305.22100 H 0 Z" fill="none" stroke="#212831" stroke-width="20"/><path d="M 0 339.1384615384615 L 0 339.14&#10;                L 81.00 356.10&#10;                L 176.352 339.14 L 176.352 339.14&#10;                L 235.14 366.14&#10;                L 352.704 339.14 L 352.704 339.14&#10;                L 428.70 365.14&#10;                L 529.056 339.14 L 529.056 339.14&#10;                L 600.06 356.10&#10;                L 705.408 339.14 L 705.408 339.14&#10;                L 783.41 356.10&#10;                L 881.76 339.14 L 881.76 339.14&#10;                L 1002.76 356.10&#10;                L 1058.112 339.14  H 931.76 V 540.88 H -100 V 339.14100 H 0 Z" stroke="#222734" stroke-width="20" fill="none"/><path d="M 0 373.05230769230764 L 0 373.05&#10;                L 58.78 395.05&#10;                L 176.352 373.05 L 176.352 373.05&#10;                L 235.14 390.01&#10;                L 352.704 373.05 L 352.704 373.05&#10;                L 411.49 405.05&#10;                L 529.056 373.05 L 529.056 373.05&#10;                L 587.84 390.01&#10;                L 705.408 373.05 L 705.408 373.05&#10;                L 764.19 401.05&#10;                L 881.76 373.05 L 881.76 373.05&#10;                L 940.54 390.01&#10;                L 1058.112 373.05  H 931.76 V 540.88 H -100 V 373.05100 H 0 Z" stroke="#232637" stroke-width="20" fill="none"/><path d="M 0 406.9661538461538 L 0 406.97&#10;                L 61.00 423.92&#10;                L 176.352 406.97 L 176.352 406.97&#10;                L 266.35 423.92&#10;                L 352.704 406.97 L 352.704 406.97&#10;                L 434.70 437.97&#10;                L 529.056 406.97 L 529.056 406.97&#10;                L 587.84 423.97&#10;                L 705.408 406.97 L 705.408 406.97&#10;                L 764.19 424.97&#10;                L 881.76 406.97 L 881.76 406.97&#10;                L 940.54 436.97&#10;                L 1058.112 406.97  H 931.76 V 540.88 H -100 V 406.97100 H 0 Z" stroke="#24253a" stroke-width="20" fill="none"/></svg>