<svg class="border shadow-md" viewBox="0 0 881.76 440.88" style="width: 881.76px; height: 440.88px;" xmlns="http://www.w3.org/2000/svg" preserveAspectRatio="none"><rect class="bg" id="bg" x="0" y="0" width="881.76" height="440.88" fill="#061822"/><path d="M 0 -44.088 L 0 -44.09&#10;                L 86.00 -12.09&#10;                L 176.352 -44.09 L 176.352 -44.09&#10;                L 264.35 -22.04&#10;                L 352.704 -44.09 L 352.704 -44.09&#10;                L 484.70 -15.09&#10;                L 529.056 -44.09 L 529.056 -44.09&#10;                L 642.06 -12.09&#10;                L 705.408 -44.09 L 705.408 -44.09&#10;                L 764.19 -9.09&#10;                L 881.76 -44.09 L 881.76 -44.09&#10;                L 940.54 -2.09&#10;                L 1058.112 -44.09  V 440.88 H 0 V -44.09 Z" fill="#1D3A1B"/><path d="M 0 0 L 0 0.00&#10;                L 58.78 43.00&#10;                L 176.352 0.00 L 176.352 0.00&#10;                L 240.35 22.04&#10;                L 352.704 0.00 L 352.704 0.00&#10;                L 411.49 42.00&#10;                L 529.056 0.00 L 529.056 0.00&#10;                L 587.84 22.04&#10;                L 705.408 0.00 L 705.408 0.00&#10;                L 764.19 22.04&#10;                L 881.76 0.00 L 881.76 0.00&#10;                L 984.76 22.04&#10;                L 1058.112 0.00  V 440.88 H 0 V 0.00 Z" fill="#1c371c"/><path d="M 0 44.088 L 0 44.09&#10;                L 58.78 66.13&#10;                L 176.352 44.09 L 176.352 44.09&#10;                L 263.35 77.09&#10;                L 352.704 44.09 L 352.704 44.09&#10;                L 412.70 66.13&#10;                L 529.056 44.09 L 529.056 44.09&#10;                L 613.06 66.13&#10;                L 705.408 44.09 L 705.408 44.09&#10;                L 815.41 66.13&#10;                L 881.76 44.09 L 881.76 44.09&#10;                L 940.54 70.09&#10;                L 1058.112 44.09  V 440.88 H 0 V 44.09 Z" fill="#1b341d"/><path d="M 0 88.176 L 0 88.18&#10;                L 58.78 110.22&#10;                L 176.352 88.18 L 176.352 88.18&#10;                L 284.35 110.22&#10;                L 352.704 88.18 L 352.704 88.18&#10;                L 411.49 116.18&#10;                L 529.056 88.18 L 529.056 88.18&#10;                L 587.84 131.18&#10;                L 705.408 88.18 L 705.408 88.18&#10;                L 776.41 110.22&#10;                L 881.76 88.18 L 881.76 88.18&#10;                L 950.76 123.18&#10;                L 1058.112 88.18  V 440.88 H 0 V 88.18 Z" fill="#1a311e"/><path d="M 0 132.264 L 0 132.26&#10;                L 58.78 154.31&#10;                L 176.352 132.26 L 176.352 132.26&#10;                L 235.14 159.26&#10;                L 352.704 132.26 L 352.704 132.26&#10;                L 474.70 154.31&#10;                L 529.056 132.26 L 529.056 132.26&#10;                L 653.06 154.31&#10;                L 705.408 132.26 L 705.408 132.26&#10;                L 764.19 154.31&#10;                L 881.76 132.26 L 881.76 132.26&#10;                L 940.54 154.31&#10;                L 1058.112 132.26  V 440.88 H 0 V 132.26 Z" fill="#192e1f"/><path d="M 0 176.352 L 0 176.35&#10;                L 86.00 198.40&#10;                L 176.352 176.35 L 176.352 176.35&#10;                L 288.35 214.35&#10;                L 352.704 176.35 L 352.704 176.35&#10;                L 411.49 198.40&#10;                L 529.056 176.35 L 529.056 176.35&#10;                L 587.84 215.35&#10;                L 705.408 176.35 L 705.408 176.35&#10;                L 764.19 212.35&#10;                L 881.76 176.35 L 881.76 176.35&#10;                L 940.54 198.40&#10;                L 1058.112 176.35  V 440.88 H 0 V 176.35 Z" fill="#182b20"/><path d="M 0 220.44 L 0 220.44&#10;                L 95.00 251.44&#10;                L 176.352 220.44 L 176.352 220.44&#10;                L 277.35 248.44&#10;                L 352.704 220.44 L 352.704 220.44&#10;                L 478.70 249.44&#10;                L 529.056 220.44 L 529.056 220.44&#10;                L 587.84 250.44&#10;                L 705.408 220.44 L 705.408 220.44&#10;                L 776.41 242.48&#10;                L 881.76 220.44 L 881.76 220.44&#10;                L 949.76 242.48&#10;                L 1058.112 220.44  V 440.88 H 0 V 220.44 Z" fill="#172821"/><path d="M 0 264.528 L 0 264.53&#10;                L 131.00 286.57&#10;                L 176.352 264.53 L 176.352 264.53&#10;                L 235.14 286.57&#10;                L 352.704 264.53 L 352.704 264.53&#10;                L 460.70 291.53&#10;                L 529.056 264.53 L 529.056 264.53&#10;                L 614.06 286.57&#10;                L 705.408 264.53 L 705.408 264.53&#10;                L 764.19 286.57&#10;                L 881.76 264.53 L 881.76 264.53&#10;                L 940.54 306.53&#10;                L 1058.112 264.53  V 440.88 H 0 V 264.53 Z" fill="#162522"/><path d="M 0 308.616 L 0 308.62&#10;                L 79.00 331.62&#10;                L 176.352 308.62 L 176.352 308.62&#10;                L 259.35 330.66&#10;                L 352.704 308.62 L 352.704 308.62&#10;                L 411.49 334.62&#10;                L 529.056 308.62 L 529.056 308.62&#10;                L 608.06 331.62&#10;                L 705.408 308.62 L 705.408 308.62&#10;                L 827.41 330.66&#10;                L 881.76 308.62 L 881.76 308.62&#10;                L 940.54 330.66&#10;                L 1058.112 308.62  V 440.88 H 0 V 308.62 Z" fill="#152223"/><path d="M 0 352.704 L 0 352.70&#10;                L 58.78 374.75&#10;                L 176.352 352.70 L 176.352 352.70&#10;                L 235.14 374.75&#10;                L 352.704 352.70 L 352.704 352.70&#10;                L 471.70 374.75&#10;                L 529.056 352.70 L 529.056 352.70&#10;                L 587.84 380.70&#10;                L 705.408 352.70 L 705.408 352.70&#10;                L 764.19 379.70&#10;                L 881.76 352.70 L 881.76 352.70&#10;                L 991.76 384.70&#10;                L 1058.112 352.70  V 440.88 H 0 V 352.70 Z" fill="#141f24"/><path d="M 0 396.79200000000003 L 0 396.79&#10;                L 58.78 418.84&#10;                L 176.352 396.79 L 176.352 396.79&#10;                L 235.14 430.79&#10;                L 352.704 396.79 L 352.704 396.79&#10;                L 425.70 430.79&#10;                L 529.056 396.79 L 529.056 396.79&#10;                L 587.84 421.79&#10;                L 705.408 396.79 L 705.408 396.79&#10;                L 818.41 418.84&#10;                L 881.76 396.79 L 881.76 396.79&#10;                L 996.76 418.84&#10;                L 1058.112 396.79  V 440.88 H 0 V 396.79 Z" fill="#131c25"/></svg>