<svg width="122" height="122" viewBox="0 0 122 122" fill="none" xmlns="http://www.w3.org/2000/svg">
<path d="M25.222 57.766C25.2221 57.0885 25.3561 56.4178 25.6161 55.7922C25.8762 55.1667 26.2573 54.5986 26.7375 54.1208C27.2177 53.6429 27.7875 53.2646 28.4143 53.0075C29.0411 52.7505 29.7125 52.6198 30.39 52.623L38.958 52.651C40.3241 52.651 41.6343 53.1937 42.6003 54.1597C43.5663 55.1257 44.109 56.4359 44.109 57.802V90.202C45.074 89.916 46.309 89.611 47.668 89.291C48.6095 89.0695 49.4486 88.5364 50.0492 87.7782C50.6499 87.0201 50.9768 86.0812 50.977 85.114V44.927C50.977 43.5608 51.5197 42.2505 52.4856 41.2843C53.4516 40.3182 54.7618 39.7753 56.128 39.775H64.722C66.0882 39.7753 67.3984 40.3182 68.3644 41.2843C69.3303 42.2505 69.873 43.5608 69.873 44.927V82.227C69.873 82.227 72.023 81.357 74.116 80.473C74.8937 80.1441 75.5574 79.5934 76.0242 78.8897C76.4911 78.186 76.7403 77.3604 76.741 76.516V32.049C76.741 30.683 77.2836 29.373 78.2493 28.407C79.2151 27.4411 80.525 26.8983 81.891 26.898H90.476C91.8413 26.8993 93.1501 27.4426 94.1151 28.4085C95.08 29.3743 95.622 30.6837 95.622 32.049V68.666C103.065 63.272 110.608 56.784 116.594 48.983C117.462 47.8506 118.037 46.5209 118.267 45.1124C118.496 43.704 118.374 42.2606 117.91 40.911C115.139 32.9391 110.734 25.6335 104.978 19.4615C99.2217 13.2896 92.2403 8.38733 84.4805 5.06839C76.7208 1.74944 68.3537 0.0869256 59.9145 0.187236C51.4754 0.287547 43.1502 2.14847 35.4715 5.65092C27.7929 9.15337 20.9299 14.2202 15.3219 20.5272C9.71379 26.8342 5.4841 34.2425 2.90345 42.278C0.3228 50.3135 -0.551977 58.7992 0.335092 67.1922C1.22216 75.5852 3.85155 83.7005 8.05499 91.019C8.78732 92.2815 9.86475 93.3088 11.1607 93.9801C12.4566 94.6515 13.9173 94.939 15.371 94.809C16.995 94.666 19.017 94.464 21.421 94.182C22.4673 94.0629 23.4332 93.5632 24.1349 92.7781C24.8365 91.9929 25.2249 90.977 25.226 89.924V57.766" fill="white"/>
<path d="M25.039 109.727C34.0882 116.31 44.7822 120.262 55.9378 121.144C67.0934 122.027 78.2757 119.806 88.2476 114.728C98.2194 109.65 106.592 101.912 112.439 92.3707C118.286 82.8294 121.38 71.8564 121.378 60.666C121.378 59.266 121.313 57.888 121.22 56.514C99.057 89.569 58.135 105.022 25.039 109.727Z" fill="white"/>
</svg>
